# xmcd
#
# Track frame offsets: 
#        150
#        18447
#        32608
#        47980
#        61685
#        75907
#        96064
#        111310
#        128277
#        147676
#        165364
#        184726
#
# Disc length: 2669 seconds
#
# Revision: 0
# Processed by: cddbd v1.5.2PL0 Copyright (c) Steve Scherf et al.
# Submitted via: ExactAudioCopy v0.99pb5
#
DISCID=8f0a6b0c
DTITLE=kids bossa - candy pop
DYEAR=1900
DGENRE=
TTITLE0=Can't take my eyes off you
TTITLE1=Human nature
TTITLE2=I was born to love you
TTITLE3=Stand by me
TTITLE4=Daydream believer
TTITLE5=September
TTITLE6=California dreamin
TTITLE7=Imagine
TTITLE8=Happy birthday
TTITLE9=Yesterday once more
TTITLE10=Your song
TTITLE11=What a wonderful world
EXTD=
EXTT0=
EXTT1=
EXTT2=
EXTT3=
EXTT4=
EXTT5=
EXTT6=
EXTT7=
EXTT8=
EXTT9=
EXTT10=
EXTT11=
PLAYORDER=
